# xmcd
#
# Track frame offsets: 
#        150
#        19267
#        34125
#        52015
#        75980
#        94637
#        111835
#        125280
#        141317
#        167212
#        181140
#        194705
#
# Disc length: 3952 seconds
#
# Revision: 4
# Processed by: cddbd v1.5.2PL0 Copyright (c) Steve Scherf et al.
# Submitted via: ExactAudioCopy v0.99pb4
#
DISCID=a10f6e0c
DTITLE=Placebo - Without You I´m Nothing
DYEAR=1998
DGENRE=Rock
TTITLE0=Pure Morning
TTITLE1=Brick Shithouse
TTITLE2=You Don`t Care About Us
TTITLE3=Ask For Answers
TTITLE4=Without You I`m Nothing
TTITLE5=Allergic (To Thoughts Of Mother Earth)
TTITLE6=The Crawl
TTITLE7=Every You Every Me
TTITLE8=My Sweet Prince
TTITLE9=Summer`s Gone
TTITLE10=Scared Of Girls
TTITLE11=Burger Queen
EXTD=YEAR: 1998 ID3G: 13
EXTT0=
EXTT1=
EXTT2=
EXTT3=
EXTT4=
EXTT5=
EXTT6=
EXTT7=
EXTT8=
EXTT9=
EXTT10=
EXTT11=
PLAYORDER=
